<?xml version="1.0" encoding="UTF-8" standalone="no"?>
<svg
   xmlns:sketch="http://www.bohemiancoding.com/sketch/ns"
   xmlns:dc="http://purl.org/dc/elements/1.1/"
   xmlns:cc="http://creativecommons.org/ns#"
   xmlns:rdf="http://www.w3.org/1999/02/22-rdf-syntax-ns#"
   xmlns:svg="http://www.w3.org/2000/svg"
   xmlns="http://www.w3.org/2000/svg"
   id="svg3336"
   xml:space="preserve"
   enable-background="new 0 0 1192 231"
   viewBox="0 0 1192 231"
   height="231px"
   width="1192px"
   y="0px"
   x="0px"
   version="1.1"><metadata
   id="metadata3374"><rdf:RDF><cc:Work
       rdf:about=""><dc:format>image/svg+xml</dc:format><dc:type
         rdf:resource="http://purl.org/dc/dcmitype/StillImage" /><dc:title></dc:title></cc:Work></rdf:RDF></metadata><defs
   id="defs3372" />
<g
   display="none"
   id="Layer_2">
	<rect
   id="rect3339"
   height="295"
   width="1343"
   stroke-miterlimit="10"
   stroke="#FFFFFF"
   display="inline"
   y="-13"
   x="-44.5" />
</g>
<g
   id="Layer_1">
	<path
   d="M149.176,170.667   c108.108,45.963,196.167-106,454.667-22c86.055,27.965,224.434,26.158,308.664,6c194.832-46.627,303.827-127.73,303.827-245.334   c0-168.447-276.463-305-617.5-305c-341.036,0-597.658,134.554-597.658,303C1.176-0.202,17.615,114.733,149.176,170.667z"
   fill-opacity="0.6"
   fill="#FFFFFF"
   sketch:type="MSShapeGroup"
   id="Oval-1_3_" />
	<title
   id="title3343">Slice 1</title>
	<desc
   id="desc3345">Created with Sketch.</desc>
	<g
   sketch:type="MSPage"
   id="Page-1">
		<path
   d="M159.667,194.666    c108.108,45.963,192-50,450.5,34c285.104,92.645,617.5-136.553,617.5-305s-276.464-305-617.5-305    c-341.036,0-617.5,136.553-617.5,305C-7.333,16.131,28.106,138.732,159.667,194.666z"
   fill-opacity="0.6"
   fill="#FFFFFF"
   display="none"
   sketch:type="MSShapeGroup"
   id="Oval-1" />
		<path
   d="M159.667,178.666    c108.108,45.963,192-50,450.5,34c285.104,92.645,617.5-136.553,617.5-305s-276.464-305-617.5-305    c-341.036,0-617.5,136.553-617.5,305C-7.333,0.131,28.106,122.732,159.667,178.666z"
   fill-opacity="0.6"
   fill="#FFFFFF"
   display="none"
   sketch:type="MSShapeGroup"
   id="Oval-1_1_" />
		<path
   d="M159.667,160.666    c108.108,45.963,196-110,454.5-26c86.055,27.965,226.77,28.158,311,8c194.831-46.627,302.5-135.396,302.5-253    c0-168.447-276.464-305-617.5-305c-341.036,0-617.5,136.553-617.5,305C-7.333-17.869,28.106,104.733,159.667,160.666z"
   fill-opacity="0.6"
   fill="#FFFFFF"
   sketch:type="MSShapeGroup"
   id="Oval-1_2_" />
		<g
   display="none"
   sketch:type="MSShapeGroup"
   id="Mask">
			<rect
   height="101"
   width="1233"
   fill="#FFFFFF"
   display="inline"
   y="-16.333"
   x="-12.333"
   id="path-1_1_" />
		</g>
	</g>
	<g
   sketch:type="MSPage"
   id="Page-1_1_">
		<path
   d="M165.667,231    c108.108,45.963,192-50,450.5,34c285.105,92.645,617.5-136.553,617.5-305c0-168.447-276.463-305-617.5-305    c-341.035,0-617.5,136.553-617.5,305C-1.333,52.465,34.105,175.066,165.667,231z"
   fill-opacity="0.6"
   fill="#FFFFFF"
   display="none"
   sketch:type="MSShapeGroup"
   id="Oval-1_10_" />
		<path
   d="M165.667,215    c108.108,45.963,192-50,450.5,34c285.105,92.645,617.5-136.553,617.5-305c0-168.447-276.463-305-617.5-305    c-341.035,0-617.5,136.553-617.5,305C-1.333,36.465,34.105,159.066,165.667,215z"
   fill-opacity="0.6"
   fill="#FFFFFF"
   display="none"
   sketch:type="MSShapeGroup"
   id="Oval-1_8_" />
		<g
   display="none"
   sketch:type="MSShapeGroup"
   id="Mask_1_">
			<rect
   height="101"
   width="1233"
   fill="#FFFFFF"
   display="inline"
   y="20"
   x="-6.333"
   id="path-1_2_" />
		</g>
	</g>
	<path
   d="M150.843,182.334   c108.108,45.963,196.167-106,454.667-22c86.055,27.965,224.434,26.158,308.664,6c194.832-46.627,297.001-131.397,297.001-249   C1211.175-251.113,941.538-384,600.501-384C259.465-384,2.843-249.446,2.843-80.999C2.843,11.466,19.282,126.4,150.843,182.334z"
   fill-opacity="0.6"
   fill="#FFFFFF"
   sketch:type="MSShapeGroup"
   id="Oval-1_7_" />
</g>
<g
   id="Layer_3">
	<defs
   id="defs3360">
		<filter
   height="587.492"
   width="1245.109"
   y="-432.746"
   x="0"
   filterUnits="userSpaceOnUse"
   id="Adobe_OpacityMaskFilter">
			<feColorMatrix
   id="feColorMatrix3363"
   values="1 0 0 0 0  0 1 0 0 0  0 0 1 0 0  0 0 0 1 0"
   type="matrix" />
		</filter>
	</defs>
	<mask
   id="mask-2_1_"
   height="587.492"
   width="1245.109"
   y="-432.746"
   x="0"
   maskUnits="userSpaceOnUse">
		<g
   id="g3366"
   filter="url(#Adobe_OpacityMaskFilter)">
			<rect
   height="101"
   width="1233.001"
   fill="#FFFFFF"
   y="-33.746"
   x="2.116"
   id="path-1_3_" />
		</g>
	</mask>
	<path
   d="M139.177,146.001   C247.284,191.964,370.5,37.665,629,121.665c285.105,92.644,623.088-64.301,616-238c-6.867-168.307-279.348-316.412-620.383-316.412   C283.581-432.746,0-295.782,0-127.334C0-34.871,7.615,90.068,139.177,146.001z"
   fill-opacity="0.0859"
   fill="#767676"
   mask="url(#mask-2_1_)"
   type="MSShapeGroup"
   id="Oval-5" />
</g>
</svg>