<?xml version="1.0" encoding="UTF-8" standalone="no"?>
<svg width="195px" height="91px" viewBox="0 0 195 91" version="1.1" xmlns="http://www.w3.org/2000/svg" xmlns:xlink="http://www.w3.org/1999/xlink" xmlns:sketch="http://www.bohemiancoding.com/sketch/ns">
    <!-- Generator: Sketch 3.3.2 (12043) - http://www.bohemiancoding.com/sketch -->
    <title>150415-LogoZuidwester</title>
    <desc>Created with Sketch.</desc>
    <defs>
        <path id="path-1" d="M0,0.219710983 L194.646668,0.219710983 L194.646668,90.4686127 L0,90.4686127"></path>
        <path id="path-3" d="M0,0.219710983 L194.646668,0.219710983 L194.646668,90.4686127 L0,90.4686127"></path>
    </defs>
    <g id="Desktop-1280" stroke="none" stroke-width="1" fill="none" fill-rule="evenodd" sketch:type="MSPage">
        <g id="VervolgpaginaOrganisatie-&amp;-expertise" sketch:type="MSArtboardGroup" transform="translate(-215.000000, -22.000000)">
            <g id="Main-navigation-Copy" sketch:type="MSLayerGroup" transform="translate(100.000000, -430.000000)">
                <g id="150415-LogoZuidwester" transform="translate(115.000000, 452.500000)">
                    <path d="M140.773535,80.5141358 L135.664731,80.5141358 L135.664731,75.5606994 L140.01187,75.5606994 C140.398457,75.5606994 140.712853,75.2463035 140.712853,74.860763 L140.712853,74.0122601 C140.712853,73.6256734 140.398457,73.3128468 140.01187,73.3128468 L135.664731,73.3128468 L135.664731,69.5761908 L140.555916,69.5761908 C140.94198,69.5761908 141.255329,69.2623179 141.255329,68.8762543 L141.255329,68.0068266 C141.255329,67.6212861 140.94198,67.3058439 140.555916,67.3058439 L133.961971,67.3058439 C133.575908,67.3058439 133.260988,67.6212861 133.260988,68.0068266 L133.260988,82.1290116 C133.260988,82.5150751 133.575908,82.828948 133.961971,82.828948 L140.773535,82.828948 C141.159598,82.828948 141.472948,82.5150751 141.472948,82.1290116 L141.472948,81.2145954 C141.472948,80.8280087 141.159598,80.5141358 140.773535,80.5141358 L140.773535,80.5141358 Z M151.869986,74.8340838 C151.585931,74.6101879 151.078503,74.2481879 150.318931,73.727159 C149.62004,73.2500723 149.045653,72.7954798 148.610939,72.3738439 C148.09828,71.8852486 147.849798,71.3605578 147.849798,70.7699538 C147.849798,70.3075145 147.996795,69.9800405 148.315376,69.7388815 C148.682084,69.4574422 149.181665,69.3156763 149.802087,69.3156763 C150.866639,69.3156763 151.810873,69.5123699 152.610725,69.8989566 C152.783879,69.9816098 152.98685,69.9889335 153.151633,69.9266821 C153.328971,69.8639075 153.47126,69.7331272 153.551298,69.5610202 L153.921145,68.7548902 C154.077035,68.4143382 153.932653,68.0031647 153.595763,67.836289 C152.53435,67.3126445 151.323847,67.0453295 150.00035,67.0453295 C148.622971,67.0453295 147.511861,67.3754191 146.702069,68.0261821 C145.841012,68.7130405 145.405251,69.6661676 145.405251,70.8578382 C145.405251,72.0181214 145.849905,73.0518092 146.729795,73.9290838 C147.137829,74.3224711 147.500876,74.6420983 147.807948,74.8811647 C148.104035,75.1097688 148.615647,75.477 149.372604,76.0022139 C150.073064,76.4871474 150.630711,76.938078 151.034038,77.3393121 C151.52211,77.8190145 151.759607,78.3097023 151.759607,78.8432861 C151.759607,79.4647543 151.552974,79.9099306 151.111983,80.2426358 C150.622341,80.6114364 149.897818,80.7981908 148.956199,80.7981908 C147.988948,80.7981908 147.091795,80.5094277 146.21452,79.9172543 C145.904309,79.7085289 145.454425,79.7948439 145.244653,80.1003468 L144.722055,80.8635809 C144.514899,81.1701301 144.579766,81.5860116 144.871668,81.8125231 C145.963422,82.6605029 147.326676,83.0899855 148.92272,83.0899855 C150.518763,83.0899855 151.795702,82.730078 152.720058,82.0202023 C153.703003,81.2716156 154.202584,80.1652139 154.202584,78.7339538 C154.202584,77.6191821 153.773101,76.623159 152.92146,75.769948 C152.509763,75.3755145 152.15561,75.0605954 151.869986,74.8340838 L151.869986,74.8340838 Z M167.974277,67.3058439 L157.421873,67.3058439 C157.035286,67.3058439 156.72089,67.6212861 156.72089,68.0068266 L156.72089,68.8992717 C156.72089,69.2853353 157.035286,69.5992081 157.421873,69.5992081 L161.507451,69.5992081 L161.507451,82.1290116 C161.507451,82.5150751 161.821324,82.828948 162.208434,82.828948 L163.186147,82.828948 C163.571688,82.828948 163.886084,82.5150751 163.886084,82.1290116 L163.886084,69.5992081 L167.974277,69.5992081 C168.360864,69.5992081 168.674737,69.2853353 168.674737,68.8992717 L168.674737,68.0068266 C168.674737,67.6212861 168.360864,67.3058439 167.974277,67.3058439 L167.974277,67.3058439 Z M179.919754,80.5141358 L174.810951,80.5141358 L174.810951,75.5606994 L179.15809,75.5606994 C179.544676,75.5606994 179.858026,75.2463035 179.858026,74.860763 L179.858026,74.0122601 C179.858026,73.6256734 179.544676,73.3128468 179.15809,73.3128468 L174.810951,73.3128468 L174.810951,69.5761908 L179.702659,69.5761908 C180.088199,69.5761908 180.402595,69.2623179 180.402595,68.8762543 L180.402595,68.0068266 C180.402595,67.6212861 180.088199,67.3058439 179.702659,67.3058439 L173.108714,67.3058439 C172.723173,67.3058439 172.408254,67.6212861 172.408254,68.0068266 L172.408254,82.1290116 C172.408254,82.5150751 172.723173,82.828948 173.108714,82.828948 L179.919754,82.828948 C180.305818,82.828948 180.619691,82.5150751 180.619691,82.1290116 L180.619691,81.2145954 C180.619691,80.8280087 180.305818,80.5141358 179.919754,80.5141358 L179.919754,80.5141358 Z M191.315954,74.033185 C190.819512,74.6060029 190.359165,74.9224913 190.017043,74.9224913 C189.327046,74.9224913 188.583168,74.9005202 187.801101,74.8571012 L187.801101,69.5322486 C188.302775,69.504 188.753182,69.4903988 189.145,69.4903988 C190.071971,69.4903988 190.822127,69.7054017 191.376113,70.1286069 C191.878832,70.5141474 192.122084,71.0785954 192.122084,71.8575231 C192.122084,72.6913786 191.858954,73.4043931 191.315954,74.033185 L191.315954,74.033185 Z M194.59854,81.4944653 L192.410847,76.1800751 C192.892118,75.7553006 193.334679,75.2463035 193.727543,74.666685 C194.302454,73.8275983 194.591217,72.8974884 194.591217,71.9014653 C194.591217,70.4063844 194.061818,69.2298844 193.019237,68.4043988 C192.026876,67.6186705 190.768246,67.2205751 189.276827,67.2205751 C188.389613,67.2205751 187.30152,67.271841 186.046029,67.3738497 C185.682983,67.4031445 185.399451,67.7086474 185.399451,68.0706474 L185.399451,82.1290116 C185.399451,82.5150751 185.713324,82.828948 186.098864,82.828948 L187.102211,82.828948 C187.486705,82.828948 187.801101,82.5150751 187.801101,82.1290116 L187.801101,77.0824595 C188.580029,77.1201243 189.375697,77.1431416 190.170318,77.1468035 L192.356965,82.355 C192.489838,82.7075838 192.915659,82.8922457 193.260919,82.7604191 L194.195737,82.4057428 C194.37046,82.337737 194.508564,82.2074798 194.585462,82.0369422 C194.660792,81.8648353 194.668116,81.6759884 194.59854,81.4944653 L194.59854,81.4944653 Z M128.915419,67.3058439 L127.871269,67.3058439 C127.569951,67.3058439 127.303682,67.4973064 127.206905,67.7834538 L123.721347,78.1799682 L120.306934,68.0648931 C120.212249,67.7813613 119.94598,67.5888526 119.645185,67.5888526 L119.013254,67.5888526 C118.724491,67.5888526 118.468162,67.7625289 118.361445,68.0335058 L114.343873,78.3097023 L110.777231,67.7797919 C110.678361,67.4962601 110.411046,67.3058439 110.112867,67.3058439 L109.00385,67.3058439 C108.776815,67.3058439 108.562335,67.4177919 108.43574,67.5987919 C108.302344,67.7818844 108.268341,68.0209509 108.342101,68.2364769 L113.303908,82.4455 C113.401731,82.7274624 113.667477,82.915263 113.965656,82.915263 L114.551552,82.915263 C114.842408,82.915263 115.098214,82.7421098 115.203884,82.4721792 L119.215179,72.2859595 C119.69959,73.6915867 120.902769,77.1509884 122.748341,82.4475925 C122.848257,82.7274624 123.114003,82.915263 123.409043,82.915263 L123.997555,82.915263 C124.294165,82.915263 124.55991,82.7258931 124.657211,82.4434075 L129.578214,68.2333382 C129.649882,68.0188584 129.615355,67.7824075 129.485098,67.5987919 C129.352749,67.4151763 129.139838,67.3058439 128.915419,67.3058439 L128.915419,67.3058439 Z M77.4308584,67.3058439 L76.4301272,67.3058439 C76.0445867,67.3058439 75.7301908,67.6212861 75.7301908,68.0068266 L75.7301908,76.0367399 C75.7301908,79.2549827 74.4250029,80.7542486 71.6210723,80.7542486 C68.8181879,80.7542486 67.513,79.2549827 67.513,76.0367399 L67.513,68.0068266 C67.513,67.6212861 67.198604,67.3058439 66.8125405,67.3058439 L65.8097168,67.3058439 C65.4231301,67.3058439 65.1097803,67.6212861 65.1097803,68.0068266 L65.1097803,76.0367399 C65.1097803,78.1726445 65.6496416,79.8848208 66.7136705,81.126711 C67.8080405,82.4005116 69.4584884,83.0460434 71.6210723,83.0460434 C73.7836561,83.0460434 75.4346272,82.4005116 76.5253353,81.126711 C77.5904104,79.8863902 78.1302717,78.174737 78.1302717,76.0367399 L78.1302717,68.0068266 C78.1302717,67.6212861 77.8158757,67.3058439 77.4308584,67.3058439 L77.4308584,67.3058439 Z M85.699315,67.3058439 L84.6980607,67.3058439 C84.311474,67.3058439 83.9965549,67.6212861 83.9965549,68.0068266 L83.9965549,82.1290116 C83.9965549,82.5150751 84.311474,82.828948 84.6980607,82.828948 L85.699315,82.828948 C86.0848555,82.828948 86.3987283,82.5150751 86.3987283,82.1290116 L86.3987283,68.0068266 C86.3987283,67.6212861 86.0848555,67.3058439 85.699315,67.3058439 L85.699315,67.3058439 Z M101.629408,79.3664075 C100.642801,80.2442052 99.2947168,80.6899046 97.6222977,80.6899046 C96.5326358,80.6899046 95.5988642,80.6606098 94.8424306,80.6004509 L94.8424306,69.5123699 C95.4649451,69.482552 96.2517197,69.4673815 97.1875838,69.4673815 C98.8756965,69.4673815 100.252029,69.9889335 101.397665,71.0644711 C102.530223,72.1258844 103.081069,73.5304653 103.081069,75.3608671 C103.081069,77.1583121 102.592997,78.506396 101.629408,79.3664075 L101.629408,79.3664075 Z M97.1875838,67.1766329 C95.6182197,67.1766329 94.2251474,67.2210983 93.0455087,67.3089827 C92.6808931,67.3372312 92.3957919,67.6427341 92.3957919,68.0068266 L92.3957919,82.0845462 C92.3957919,82.4475925 92.6699075,82.7478642 93.0308613,82.7808208 C94.5970867,82.9278179 96.1418642,83.0021012 97.6222977,83.0021012 C99.9036301,83.0021012 101.803607,82.359185 103.26887,81.0927081 C104.766043,79.7969364 105.526662,77.8697572 105.526662,75.3608671 C105.526662,72.8613931 104.713731,70.8478988 103.110887,69.3732197 C101.526876,67.9147572 99.5343064,67.1766329 97.1875838,67.1766329 L97.1875838,67.1766329 Z" id="Fill-1" fill="#9D2B4B" sketch:type="MSShapeGroup"></path>
                    <path d="M60.3294971,80.6993208 L52.921052,80.6993208 L60.7077139,68.659159 C60.7778121,68.5555809 60.8149538,68.4326474 60.8149538,68.3065751 L60.8149538,67.8661069 C60.8149538,67.5103844 60.5235751,67.2210983 60.169422,67.2210983 L50.8573382,67.2210983 C50.5021387,67.2210983 50.2118064,67.5103844 50.2118064,67.8661069 L50.2118064,68.7072861 C50.2118064,69.0630087 50.5021387,69.3507254 50.8573382,69.3507254 L57.5825867,69.3507254 L49.7969711,81.372578 C49.7284422,81.4756329 49.6913006,81.5985665 49.6913006,81.7241156 L49.6913006,82.1849855 C49.6913006,82.5396618 49.9811098,82.828948 50.3368324,82.828948 L60.3294971,82.828948 C60.6836503,82.828948 60.9734595,82.5396618 60.9734595,82.1849855 L60.9734595,81.3432832 C60.9734595,80.9870376 60.6836503,80.6993208 60.3294971,80.6993208" id="Fill-3" fill="#9D2B4B" sketch:type="MSShapeGroup"></path>
                    <g id="Group-7">
                        <mask id="mask-2" sketch:name="Clip 5" fill="white">
                            <use xlink:href="#path-1"></use>
                        </mask>
                        <g id="Clip-5"></g>
                        <path d="M48.1559393,0.219710983 L32.7787861,22.4314451 L60.9405029,61.3882948 L71.1193988,14.4151329 L48.1559393,0.219710983" id="Fill-4" fill="#E78838" sketch:type="MSShapeGroup" mask="url(#mask-2)"></path>
                        <path d="M23.4258988,7.52143931 L0,34.9450318 L32.1484249,90.5 L52.0129133,29.4778902 L23.4258988,7.52143931" id="Fill-6" fill="#9D2B4B" sketch:type="MSShapeGroup" mask="url(#mask-2)"></path>
                    </g>
                    <path d="M48.0528844,0.232265896 L51.9171821,18.4217197 L71.0644711,14.350789 L48.0528844,0.232265896" id="Fill-8" fill="#E78838" sketch:type="MSShapeGroup"></path>
                    <path d="M32.7787861,22.4314451 L51.9585087,18.4217197 L48.1559393,0.219710983 L32.7787861,22.4314451" id="Fill-9" fill="#FCD233" sketch:type="MSShapeGroup"></path>
                    <path d="M51.9171821,18.4217197 L61.0430347,61.3574306 L71.0644711,14.350789 L51.9171821,18.4217197" id="Fill-10" fill="#DE6235" sketch:type="MSShapeGroup"></path>
                    <path d="M32.7505376,22.495789 L61.0430347,61.3574306 L51.9171821,18.4217197 L32.7505376,22.495789" id="Fill-11" fill="#F1B236" sketch:type="MSShapeGroup"></path>
                    <path d="M48.0528844,0.232265896 L51.9171821,18.4217197 L71.0644711,14.350789 L48.0528844,0.232265896" id="Fill-12" fill="#E78838" sketch:type="MSShapeGroup"></path>
                    <path d="M51.9171821,18.4217197 L61.0430347,61.3574306 L71.0644711,14.350789 L51.9171821,18.4217197" id="Fill-13" fill="#DE6234" sketch:type="MSShapeGroup"></path>
                    <path d="M32.7505376,22.495789 L61.0430347,61.3574306 L51.9171821,18.4217197 L32.7505376,22.495789" id="Fill-14" fill="#F1B337" sketch:type="MSShapeGroup"></path>
                    <path d="M23.4258988,7.52143931 L26.0216272,32.2122457 L52.0129133,29.4778902 L23.4258988,7.52143931" id="Fill-15" fill="#DA555E" sketch:type="MSShapeGroup"></path>
                    <g id="Group-20">
                        <mask id="mask-4" sketch:name="Clip 17" fill="white">
                            <use xlink:href="#path-3"></use>
                        </mask>
                        <g id="Clip-17"></g>
                        <path d="M0,34.9450318 L26.0216272,32.2122457 L23.4258988,7.52143931 L0,34.9450318" id="Fill-16" fill="#D62E72" sketch:type="MSShapeGroup" mask="url(#mask-4)"></path>
                        <path d="M26.0216272,32.2122457 L32.1484249,90.5 L52.0129133,29.4778902 L26.0216272,32.2122457" id="Fill-18" fill="#D63B47" sketch:type="MSShapeGroup" mask="url(#mask-4)"></path>
                        <path d="M0,34.9450318 L32.1484249,90.5 L26.0216272,32.2122457 L0,34.9450318" id="Fill-19" fill="#9D2B4B" sketch:type="MSShapeGroup" mask="url(#mask-4)"></path>
                    </g>
                    <path id="Fill-21" fill="#E78836" sketch:type="MSShapeGroup"></path>
                    <path d="M52.0129133,29.4778902 L40.7176763,20.8024451 L52.0129133,29.4778902" id="Fill-22" fill="#F0B136" sketch:type="MSShapeGroup"></path>
                    <path d="M38.8428092,30.8631156 L32.7505376,22.495789 L40.7176763,20.8024451 L52.0129133,29.4778902 L38.8428092,30.8631156" id="Fill-23" fill="#DA5331" sketch:type="MSShapeGroup"></path>
                    <path d="M38.8428092,30.8631156 L38.8428092,30.8631156 L52.0129133,29.4778902 L38.8428092,30.8631156" id="Fill-24" fill="#DA5331" sketch:type="MSShapeGroup"></path>
                    <path d="M47.6317717,42.935711 L38.8428092,30.8631156 L52.0129133,29.4778902 L47.6317717,42.935711" id="Fill-25" fill="#D53B2F" sketch:type="MSShapeGroup"></path>
                    <path d="M40.7176763,20.8024451 L40.686289,20.7783815 L40.7176763,20.8024451" id="Fill-26" fill="#E78835" sketch:type="MSShapeGroup"></path>
                    <path d="M40.686289,20.7783815 L37.8818353,18.6241676 L40.686289,20.7783815" id="Fill-27" fill="#FCD231" sketch:type="MSShapeGroup"></path>
                    <path d="M32.7505376,22.495789 L36.2648671,17.3828006 L40.686289,20.7783815 L40.7176763,20.8024451 L32.7505376,22.495789" id="Fill-28" fill="#DA5330" sketch:type="MSShapeGroup"></path>
                    <path d="M32.7505376,22.495789 L32.7505376,22.495789 L40.7176763,20.8024451 L32.7505376,22.495789" id="Fill-29" fill="#DA5330" sketch:type="MSShapeGroup"></path>
                </g>
            </g>
        </g>
    </g>
</svg>