<svg width="192px" height="192px" viewBox="0 0 195 91" version="1.1" xmlns="http://www.w3.org/2000/svg" xmlns:xlink="http://www.w3.org/1999/xlink" xmlns:sketch="http://www.bohemiancoding.com/sketch/ns">
    <!-- Generator: Sketch 3.3.2 (12043) - http://www.bohemiancoding.com/sketch -->
    <title>150415-LogoZuidwester</title>
    <desc>Created with Sketch.</desc>
    <defs>
        <path id="path-1" d="M0,0.219710983 L194.646668,0.219710983 L194.646668,90.4686127 L0,90.4686127"></path>
        <path id="path-3" d="M0,0.219710983 L194.646668,0.219710983 L194.646668,90.4686127 L0,90.4686127"></path>
    </defs>
    <g id="Desktop-1280" stroke="none" stroke-width="1" fill="none" fill-rule="evenodd" sketch:type="MSPage">
        <g id="VervolgpaginaOrganisatie-&amp;-expertise" sketch:type="MSArtboardGroup" transform="translate(-215.000000, -22.000000)">
            <g id="Main-navigation-Copy" sketch:type="MSLayerGroup" transform="translate(100.000000, -430.000000)">
                <g id="150415-LogoZuidwester" transform="translate(115.000000, 452.500000)">
                    <path d="M48.0528844,0.232265896 L51.9171821,18.4217197 L71.0644711,14.350789 L48.0528844,0.232265896" id="Fill-8" fill="#E78838" sketch:type="MSShapeGroup"></path>
                    <path d="M32.7787861,22.4314451 L51.9585087,18.4217197 L48.1559393,0.219710983 L32.7787861,22.4314451" id="Fill-9" fill="#FCD233" sketch:type="MSShapeGroup"></path>
                    <path d="M51.9171821,18.4217197 L61.0430347,61.3574306 L71.0644711,14.350789 L51.9171821,18.4217197" id="Fill-10" fill="#DE6235" sketch:type="MSShapeGroup"></path>
                    <path d="M32.7505376,22.495789 L61.0430347,61.3574306 L51.9171821,18.4217197 L32.7505376,22.495789" id="Fill-11" fill="#F1B236" sketch:type="MSShapeGroup"></path>
                    <path d="M48.0528844,0.232265896 L51.9171821,18.4217197 L71.0644711,14.350789 L48.0528844,0.232265896" id="Fill-12" fill="#E78838" sketch:type="MSShapeGroup"></path>
                    <path d="M51.9171821,18.4217197 L61.0430347,61.3574306 L71.0644711,14.350789 L51.9171821,18.4217197" id="Fill-13" fill="#DE6234" sketch:type="MSShapeGroup"></path>
                    <path d="M32.7505376,22.495789 L61.0430347,61.3574306 L51.9171821,18.4217197 L32.7505376,22.495789" id="Fill-14" fill="#F1B337" sketch:type="MSShapeGroup"></path>
                    <path d="M23.4258988,7.52143931 L26.0216272,32.2122457 L52.0129133,29.4778902 L23.4258988,7.52143931" id="Fill-15" fill="#DA555E" sketch:type="MSShapeGroup"></path>
                    <g id="Group-20">
                        <mask id="mask-4" sketch:name="Clip 17" fill="white">
                            <use xlink:href="#path-3"></use>
                        </mask>
                        <g id="Clip-17"></g>
                        <path d="M0,34.9450318 L26.0216272,32.2122457 L23.4258988,7.52143931 L0,34.9450318" id="Fill-16" fill="#D62E72" sketch:type="MSShapeGroup" mask="url(#mask-4)"></path>
                        <path d="M26.0216272,32.2122457 L32.1484249,90.5 L52.0129133,29.4778902 L26.0216272,32.2122457" id="Fill-18" fill="#D63B47" sketch:type="MSShapeGroup" mask="url(#mask-4)"></path>
                        <path d="M0,34.9450318 L32.1484249,90.5 L26.0216272,32.2122457 L0,34.9450318" id="Fill-19" fill="#9D2B4B" sketch:type="MSShapeGroup" mask="url(#mask-4)"></path>
                    </g>
                    <path id="Fill-21" fill="#E78836" sketch:type="MSShapeGroup"></path>
                    <path d="M52.0129133,29.4778902 L40.7176763,20.8024451 L52.0129133,29.4778902" id="Fill-22" fill="#F0B136" sketch:type="MSShapeGroup"></path>
                    <path d="M38.8428092,30.8631156 L32.7505376,22.495789 L40.7176763,20.8024451 L52.0129133,29.4778902 L38.8428092,30.8631156" id="Fill-23" fill="#DA5331" sketch:type="MSShapeGroup"></path>
                    <path d="M38.8428092,30.8631156 L38.8428092,30.8631156 L52.0129133,29.4778902 L38.8428092,30.8631156" id="Fill-24" fill="#DA5331" sketch:type="MSShapeGroup"></path>
                    <path d="M47.6317717,42.935711 L38.8428092,30.8631156 L52.0129133,29.4778902 L47.6317717,42.935711" id="Fill-25" fill="#D53B2F" sketch:type="MSShapeGroup"></path>
                    <path d="M40.7176763,20.8024451 L40.686289,20.7783815 L40.7176763,20.8024451" id="Fill-26" fill="#E78835" sketch:type="MSShapeGroup"></path>
                    <path d="M40.686289,20.7783815 L37.8818353,18.6241676 L40.686289,20.7783815" id="Fill-27" fill="#FCD231" sketch:type="MSShapeGroup"></path>
                    <path d="M32.7505376,22.495789 L36.2648671,17.3828006 L40.686289,20.7783815 L40.7176763,20.8024451 L32.7505376,22.495789" id="Fill-28" fill="#DA5330" sketch:type="MSShapeGroup"></path>
                    <path d="M32.7505376,22.495789 L32.7505376,22.495789 L40.7176763,20.8024451 L32.7505376,22.495789" id="Fill-29" fill="#DA5330" sketch:type="MSShapeGroup"></path>
                </g>
            </g>
        </g>
    </g>
</svg>