<?xml version="1.0" encoding="UTF-8" standalone="no"?>
<svg width="157px" height="77px" viewBox="0 0 157 77" version="1.1" xmlns="http://www.w3.org/2000/svg" xmlns:xlink="http://www.w3.org/1999/xlink" xmlns:sketch="http://www.bohemiancoding.com/sketch/ns">
    <!-- Generator: Sketch 3.3.2 (12043) - http://www.bohemiancoding.com/sketch -->
    <title>Fill 1 + Fill 2 + Fill 3</title>
    <desc>Created with Sketch.</desc>
    <defs></defs>
    <g id="Style-Inventory" stroke="none" stroke-width="1" fill="none" fill-rule="evenodd" sketch:type="MSPage">
        <g id="Symbols" sketch:type="MSArtboardGroup" transform="translate(-1347.000000, -3309.000000)" fill="#FFFFFF">
            <g id="elements-/-footer" sketch:type="MSLayerGroup" transform="translate(240.000000, 3136.000000)">
                <g id="Group" sketch:type="MSShapeGroup">
                    <g transform="translate(884.000000, 121.000000)" id="Fill-1-+-Fill-2-+-Fill-3">
                        <g transform="translate(223.000000, 52.000000)">
                            <path d="M57.301425,11.922005 L38.7471047,0 L29.2419041,14.482834 L18.8891312,6.15565313 L0,29.3135543 L25.9227951,76.228494 L38.4070212,36.0614423 L49.2211477,51.618306 L57.301425,11.922005" id="Fill-1"></path>
                            <path d="M113.344041,67.2366913 L109.224813,67.2366913 L109.224813,63.0537738 L112.729781,63.0537738 C113.040865,63.0537738 113.295269,62.7887177 113.295269,62.4629195 L113.295269,61.7464396 C113.295269,61.4206414 113.040865,61.1555852 112.729781,61.1555852 L109.224813,61.1555852 L109.224813,58.0011409 L113.168726,58.0011409 C113.47981,58.0011409 113.732896,57.7360847 113.732896,57.408906 L113.732896,56.6758601 C113.732896,56.3500619 113.47981,56.0836252 113.168726,56.0836252 L107.851297,56.0836252 C107.540213,56.0836252 107.287128,56.3500619 107.287128,56.6758601 L107.287128,68.6006261 C107.287128,68.9264243 107.540213,69.1914805 107.851297,69.1914805 L113.344041,69.1914805 C113.655125,69.1914805 113.90821,68.9264243 113.90821,68.6006261 L113.90821,67.8289262 C113.90821,67.5017475 113.655125,67.2366913 113.344041,67.2366913 M122.291663,62.4408315 C122.062304,62.2517029 121.653677,61.9452317 121.040735,61.5048519 C120.476566,61.1031262 120.013894,60.719347 119.663266,60.3631778 C119.250684,59.950408 119.050325,59.5072672 119.050325,59.0089065 C119.050325,58.6182247 119.168958,58.3421246 119.42468,58.1378104 C119.721264,57.9003643 120.123301,57.7802607 120.624199,57.7802607 C121.482317,57.7802607 122.244209,57.9459208 122.888786,58.2730995 C123.02851,58.3435051 123.191961,58.3490271 123.325094,58.296568 C123.467455,58.244109 123.582134,58.1336689 123.648042,57.9873359 L123.945944,57.306749 C124.071169,57.0196048 123.953853,56.6717186 123.683632,56.5309075 C122.826833,56.0891472 121.851399,55.8627451 120.783696,55.8627451 C119.673811,55.8627451 118.777467,56.1416063 118.123663,56.6910456 C117.430315,57.2708559 117.078368,58.0770684 117.078368,59.0834535 C117.078368,60.0622286 117.436905,60.9347051 118.14739,61.676034 C118.47561,62.0087347 118.76824,62.2779324 119.016053,62.4794855 C119.254638,62.6727556 119.66722,62.9833683 120.277525,63.4265091 C120.841694,63.8365178 121.292503,64.217536 121.616768,64.5557587 C122.010896,64.961626 122.202028,65.3757762 122.202028,65.8258195 C122.202028,66.3504098 122.035941,66.7272865 121.68004,67.0075282 C121.284594,67.3195214 120.700652,67.4768985 119.942714,67.4768985 C119.162368,67.4768985 118.438702,67.2339303 117.730853,66.7328085 C117.481723,66.5574849 117.117912,66.629271 116.949189,66.8874246 L116.528698,67.5321185 C116.361293,67.7916526 116.412701,68.1422998 116.64865,68.332809 C117.529176,69.0492889 118.628516,69.4123606 119.915033,69.4123606 C121.202868,69.4123606 122.231028,69.1086504 122.977102,68.5095131 C123.769312,67.8772437 124.172667,66.9426446 124.172667,65.7333259 C124.172667,64.7932049 123.825993,63.9510994 123.139235,63.2304779 C122.80706,62.8977773 122.522339,62.6313406 122.291663,62.4408315 M135.276787,56.0836252 L126.76811,56.0836252 C126.457026,56.0836252 126.202622,56.3500619 126.202622,56.6758601 L126.202622,57.428233 C126.202622,57.7554117 126.457026,58.0204679 126.76811,58.0204679 L130.062174,58.0204679 L130.062174,68.6006261 C130.062174,68.9264243 130.315259,69.1914805 130.627662,69.1914805 L131.415917,69.1914805 C131.727001,69.1914805 131.980086,68.9264243 131.980086,68.6006261 L131.980086,58.0204679 L135.276787,58.0204679 C135.587871,58.0204679 135.842274,57.7554117 135.842274,57.428233 L135.842274,56.6758601 C135.842274,56.3500619 135.587871,56.0836252 135.276787,56.0836252 M144.90853,67.2366913 L140.789302,67.2366913 L140.789302,63.0537738 L144.295589,63.0537738 C144.606673,63.0537738 144.859758,62.7887177 144.859758,62.4629195 L144.859758,61.7464396 C144.859758,61.4206414 144.606673,61.1555852 144.295589,61.1555852 L140.789302,61.1555852 L140.789302,58.0011409 L144.733216,58.0011409 C145.0443,58.0011409 145.298703,57.7360847 145.298703,57.408906 L145.298703,56.6758601 C145.298703,56.3500619 145.0443,56.0836252 144.733216,56.0836252 L139.417105,56.0836252 C139.106021,56.0836252 138.852936,56.3500619 138.852936,56.6758601 L138.852936,68.6006261 C138.852936,68.9264243 139.106021,69.1914805 139.417105,69.1914805 L144.90853,69.1914805 C145.219614,69.1914805 145.474018,68.9264243 145.474018,68.6006261 L145.474018,67.8289262 C145.474018,67.5017475 145.219614,67.2366913 144.90853,67.2366913 M154.097374,61.7643861 C153.697974,62.2475614 153.326255,62.5153785 153.050761,62.5153785 C152.4945,62.5153785 151.894741,62.4960515 151.263345,62.4601585 L151.263345,57.9638673 C151.668018,57.9390183 152.031828,57.9279743 152.348185,57.9279743 C153.09426,57.9279743 153.70061,58.1102004 154.146146,58.4663696 C154.552137,58.7921678 154.747223,59.2698211 154.747223,59.9269395 C154.747223,60.6309949 154.535001,61.2328933 154.097374,61.7643861 M156.745543,68.0649918 L154.980536,63.5769837 C155.369392,63.2180534 155.726611,62.7887177 156.042968,62.2986399 C156.505639,61.590443 156.738952,60.804938 156.738952,59.964213 C156.738952,58.7010548 156.311871,57.7084747 155.470889,57.0113218 C154.670771,56.3473009 153.655793,56.0118392 152.453637,56.0118392 C151.73788,56.0118392 150.861309,56.0546347 149.848967,56.1402258 C149.556337,56.1650748 149.326979,56.4232284 149.326979,56.7296996 L149.326979,68.6006261 C149.326979,68.9264243 149.580064,69.1914805 149.891148,69.1914805 L150.700494,69.1914805 C151.01026,69.1914805 151.263345,68.9264243 151.263345,68.6006261 L151.263345,64.3390201 C151.892104,64.3707716 152.532727,64.3900986 153.174667,64.3942401 L154.937037,68.7911352 C155.043808,69.0893234 155.387846,69.24532 155.665976,69.1334994 L156.419959,68.8353113 C156.561002,68.7773302 156.673045,68.6668902 156.73368,68.5233181 C156.795633,68.3783655 156.800906,68.2182274 156.745543,68.0649918 M103.782159,56.0836252 L102.941178,56.0836252 C102.69732,56.0836252 102.483779,56.2451438 102.40469,56.4867315 L99.5943877,65.2667166 L96.8407662,56.7241776 C96.7643134,56.485351 96.5507726,56.3224519 96.3069143,56.3224519 L95.7981073,56.3224519 C95.5661124,56.3224519 95.3578442,56.468785 95.2721643,56.6979481 L92.0334626,65.3757762 L89.1572529,56.4839705 C89.0781638,56.2437633 88.8619867,56.0836252 88.6220829,56.0836252 L87.727057,56.0836252 C87.5438338,56.0836252 87.3711557,56.1774993 87.269658,56.3307349 C87.1615694,56.485351 87.1338882,56.6869041 87.1932051,56.8691302 L91.1937992,68.8684433 C91.2742065,69.1058894 91.4877473,69.264647 91.7276511,69.264647 L92.200868,69.264647 C92.4354992,69.264647 92.6411311,69.1183139 92.726811,68.8905313 L95.9602401,60.2886307 C96.3517315,61.4758614 97.321892,64.3970011 98.8100867,68.8698238 C98.890494,69.1058894 99.1040348,69.264647 99.3426204,69.264647 L99.8171555,69.264647 C100.055741,69.264647 100.2706,69.1045089 100.348371,68.8670628 L104.31733,56.8663692 C104.37401,56.6855236 104.347647,56.485351 104.242195,56.3307349 C104.135424,56.1761188 103.964065,56.0836252 103.782159,56.0836252 M62.2682518,56.0836252 L61.4628604,56.0836252 C61.1517763,56.0836252 60.8973728,56.3500619 60.8973728,56.6758601 L60.8973728,63.4554996 C60.8973728,66.1737057 59.8454867,67.4396249 57.5848545,67.4396249 C55.3242223,67.4396249 54.2723363,66.1737057 54.2723363,63.4554996 L54.2723363,56.6758601 C54.2723363,56.3500619 54.0179327,56.0836252 53.7068487,56.0836252 L52.8988209,56.0836252 C52.5864187,56.0836252 52.3333333,56.3500619 52.3333333,56.6758601 L52.3333333,63.4554996 C52.3333333,65.2598141 52.7696419,66.7051985 53.6277595,67.7543791 C54.5096038,68.8297893 55.8409382,69.3750871 57.5848545,69.3750871 C59.3274527,69.3750871 60.6601052,68.8297893 61.5393132,67.7543791 C62.3974308,66.706579 62.8337394,65.2611946 62.8337394,63.4554996 L62.8337394,56.6758601 C62.8337394,56.3500619 62.5793359,56.0836252 62.2682518,56.0836252 M68.9367873,56.0836252 L68.1287596,56.0836252 C67.8163574,56.0836252 67.563272,56.3500619 67.563272,56.6758601 L67.563272,68.6006261 C67.563272,68.9264243 67.8163574,69.1914805 68.1287596,69.1914805 L68.9367873,69.1914805 C69.2465533,69.1914805 69.4996386,68.9264243 69.4996386,68.6006261 L69.4996386,56.6758601 C69.4996386,56.3500619 69.2465533,56.0836252 68.9367873,56.0836252 M81.7808693,66.2675797 C80.9847049,67.0089087 79.8985469,67.3857854 78.5500765,67.3857854 C77.6708685,67.3857854 76.9182032,67.3609364 76.3078984,67.3098579 L76.3078984,57.9459208 C76.8101147,57.9210718 77.4454644,57.9086473 78.1994478,57.9086473 C79.5610998,57.9086473 80.6696664,58.3490271 81.5936916,59.2573966 C82.5071715,60.1533416 82.9513891,61.3391918 82.9513891,62.8853527 C82.9513891,64.4039036 82.5585795,65.5414363 81.7808693,66.2675797 M78.1994478,55.9745657 C76.934021,55.9745657 75.8109548,56.0118392 74.8592484,56.0863862 C74.5653003,56.1098547 74.3359417,56.3680084 74.3359417,56.6758601 L74.3359417,68.5633526 C74.3359417,68.8698238 74.5573913,69.1238359 74.847385,69.1514459 C76.1101755,69.275691 77.35583,69.3378136 78.5500765,69.3378136 C80.3888998,69.3378136 81.9219116,68.7952767 83.1029766,67.7253886 C84.3104047,66.632032 84.9233458,65.003041 84.9233458,62.8853527 C84.9233458,60.774567 84.2682238,59.07379 82.976434,57.8285783 C81.6991438,56.5971715 80.0909972,55.9745657 78.1994478,55.9745657" id="Fill-2"></path>
                            <path d="M48.9486495,67.2449743 L42.9760987,67.2449743 L49.254461,57.0762053 C49.3098234,56.9892338 49.3401409,56.8856962 49.3401409,56.7793976 L49.3401409,56.4066624 C49.3401409,56.1070937 49.1055097,55.8627451 48.8194706,55.8627451 L41.3112716,55.8627451 C41.0252324,55.8627451 40.7906012,56.1070937 40.7906012,56.4066624 L40.7906012,57.1176203 C40.7906012,57.417189 41.0252324,57.6615377 41.3112716,57.6615377 L46.7341527,57.6615377 L40.4571085,67.8123602 C40.4004279,67.8993317 40.3714286,68.0042498 40.3714286,68.1091678 L40.3714286,68.4984691 C40.3714286,68.7994182 40.6047416,69.0423864 40.892099,69.0423864 L48.9486495,69.0423864 C49.2346887,69.0423864 49.4680018,68.7994182 49.4680018,68.4984691 L49.4680018,67.7875111 C49.4680018,67.4879425 49.2346887,67.2449743 48.9486495,67.2449743" id="Fill-3"></path>
                        </g>
                    </g>
                </g>
            </g>
        </g>
    </g>
</svg>